<svg xmlns="http://www.w3.org/2000/svg" viewBox="0 0 1191 394.37"><defs><style>.cls-1{fill:#fff;}.cls-2{fill:#fe3636;}.cls-3{fill:none;stroke:#079966;stroke-miterlimit:10;stroke-width:10px;}.cls-4{font-size:287px;font-family:PlayfairDisplay-Bold, Playfair Display;font-weight:700;}</style></defs><g id="Ebene_3" data-name="Ebene 3"><rect class="cls-1" width="1191" height="387" rx="112"/></g><g id="Ebene_1" data-name="Ebene 1"><path class="cls-2" d="M557.82,480.54c-48.69,11.56-71.59,54.44-77,65.7-4,8.35-5.9,15.19-9.63,28.88-1.82,6.68-17.36,66.25-1.13,132,2.46,10,5.47,19.33,13.59,23.79,11.06,6.06,23.23-1.54,41.35-7.37,17.71-5.69,14.86-1.25,77-7.36,37.1-3.65,55.86-5.59,66.27-11.33,29.09-16,40-44.94,41.91-50.4,9.24-25.93,8-58.57-7.93-82.13-12.92-19.17-26.55-19-45.31-47.57C646,508,648.87,505.3,641.07,497,620.34,474.8,581.82,474.84,557.82,480.54Z" transform="translate(-358 -389)"/><path class="cls-3" d="M538.56,470.91s-57.2,7.93-64.57,37.38c0,0-22.65,19.26-22.65,99.68a812,812,0,0,1-12.46,87.79s-9.06,28.89,36.25,44.18c0,0,103.07-4,148.38-21.52,0,0,68-4,88.36-73.63,0,0,19.82-69.67-27.75-109.88,0,0-30-41.34-62.87-51.54C621.25,483.37,582.74,469.78,538.56,470.91Z" transform="translate(-358 -389)"/><path class="cls-3" d="M695.26,546.26s24-12.48,44.36,16.4a33.71,33.71,0,0,1,21,11.9,55.23,55.23,0,0,1-6.23,3.4c-3.11,1.43-24.83,11.48-38.39,1.18a23.53,23.53,0,0,1-7.49-10.25" transform="translate(-358 -389)"/><path class="cls-3" d="M646.25,496.68s11.81-16.71-15.94-55.79c0,0-25.49,27.19-9.06,42.48" transform="translate(-358 -389)"/><path class="cls-3" d="M656.48,505s14.8-17.61,38.78-8.27c0,0,26.62,14.55,34.92,8.27a91.26,91.26,0,0,0-19.39,24.58s-6.17,12.74-30.86,0" transform="translate(-358 -389)"/><path class="cls-3" d="M599.53,477.39s-32.65-7-27.56-25.74c0,0,14.56-25.22,13.51-29,0,0,20.77,4.21,30.25,27.38,0,0,.32,5.9.09,18.79" transform="translate(-358 -389)"/></g><g id="Ebene_2" data-name="Ebene 2"><text class="cls-4" transform="translate(403 324.63)">Saiso</text></g></svg>